<svg xmlns="http://www.w3.org/2000/svg" width="940" height="514" fill="none" viewBox="0 0 940 514"><path fill="#3272ea" d="M271.384 513.032c-11.891 0-35.002-3.81-54.074-28.911-8.526-11.206-15.481-25.549-21.764-44.375-9.872-29.583-16.154-65.666-22.437-100.404-.449-3.137-1.122-6.051-1.571-9.188-.897-5.603-2.019-11.206-2.916-17.257-4.937-31.376-10.77-66.787-31.861-92.336-10.77-13.223-25.13-23.084-43.529-30.255-24.007-9.189-54.971-13.895-91.992-13.671l-.674-82.25c47.567-.225 88.852 6.05 122.508 19.273 31.636 12.327 57.664 30.704 77.409 54.684 35.226 42.806 43.528 94.129 49.362 131.556.673 3.586 1.121 6.948 1.57 10.309 3.141-60.063 6.956-125.728 15.931-179.516 5.833-34.29 13.013-60.511 22.437-80.01 6.731-13.894 14.36-24.652 23.559-32.944C326.356 6.083 341.837.032 358.217.032s36.572 4.034 53.625 31.376c7.404 11.654 12.565 26.445 16.603 45.944 6.058 29.807 8.302 67.458 10.77 107.351 2.244 36.531 4.488 74.406 9.648 105.11 2.693 15.464 5.61 25.997 8.302 32.945 1.571-5.827 3.366-13.447 5.161-23.308 4.487-24.877 7.628-55.805 10.545-85.836 4.039-39.669 8.078-80.458 15.931-112.282 4.936-20.395 11.218-35.859 19.296-47.96 18.398-27.567 42.406-31.601 55.195-31.601 19.969 0 37.919 8.964 51.157 24.877 8.302 10.309 14.809 23.532 19.745 40.565 7.18 25.101 10.546 56.028 14.136 88.749 3.365 30.256 6.731 61.408 13.013 85.612 6.956 26.222 14.136 30.704 14.136 30.704h1.346c6.282 0 8.75-1.12 9.199-1.345 0 0 .449 0 1.122-1.12 4.263-6.051 7.853-20.171 11.443-33.842 7.853-30.927 18.847-73.061 55.196-106.903C793.5 112.089 854.305 94.16 939.566 94.16v82.251c-62.6 0-106.352 10.981-129.687 32.944-18.623 17.257-24.905 41.462-31.412 67.011-5.385 21.067-10.994 42.582-24.008 61.183-17.501 24.653-43.528 37.204-77.633 37.204s-45.099-8.965-61.703-26.222c-12.34-12.55-21.764-29.359-29.168-51.098-11.219-33.393-15.482-73.734-19.745-112.73-1.122-10.758-2.244-21.291-3.59-31.152-3.141 21.067-5.385 44.823-7.853 68.131-4.039 40.565-8.302 82.474-16.379 115.419-5.161 20.843-11.892 36.979-20.194 49.306-18.847 27.79-43.304 31.824-56.317 31.824-25.354 0-48.24-11.878-64.62-33.393-10.994-14.568-19.296-34.066-25.354-59.167-9.648-39.668-12.565-88.749-15.257-136.262-1.346-23.308-2.692-45.495-4.712-64.993-2.692 12.102-4.936 26.221-6.955 42.133-6.507 49.754-9.648 109.817-12.341 162.708-2.019 39.669-3.814 77.096-6.955 104.662-1.795 16.585-4.039 28.911-6.956 38.324-11.219 36.531-37.022 40.565-47.791 40.565z"/></svg>